# xmcd CD database file
#
# Track frame offsets:
#	150
#	13762
#	27137
#	49370
#	66510
#	87512
#	112447
#	129437
#	145440
#	163582
#
# Disc length: 2496 seconds
#
# Revision: 2
# Processed by: cddbd v1.5.2PL0 Copyright (c) Steve Scherf et al.
# Submitted via: CDex 1.51
#
DISCID=9709be0a
DTITLE=Roy Orbison - King Of Hearts
DYEAR=1992
DGENRE=Country
TTITLE0=You're the one
TTITLE1=Heartbreak radio
TTITLE2=We'll take the night
TTITLE3=Crying
TTITLE4=After the love has gone
TTITLE5=Love in time
TTITLE6=I drove all night
TTITLE7=Wild hearts run out of time
TTITLE8=Coming home
TTITLE9=Careless heart
EXTD=YEAR: 1992
EXTT0=
EXTT1=
EXTT2=
EXTT3=
EXTT4=
EXTT5=
EXTT6=
EXTT7=
EXTT8=
EXTT9=
PLAYORDER=
